PathFileType	4	(X/Y/Z)	/home/abdul/Desktop/myosuite/custom_workspace/IK/output/S3_12_3.trc
DataRate	CameraRate	NumFrames	NumMarkers	Units	OrigDataRate	OrigDataStartFrame	OrigNumFrames
200.0	200.0	67	3	mm	200.0	557	1113
Frame#	Time	V_Shoulder			V_Elbow			V_Wrist		
		X1	Y1	Z1	X2	Y2	Z2	X3	Y3	Z3

557	2.78	-118.21287084639624	676.7807192786779	329.0060953507936	-350.16249839568917	440.1653390162287	188.58751562283422	-113.3899084788195	422.4165088729098	356.82317583177996
558	2.785	-118.20754429118193	676.7754976675146	329.0402685937349	-350.1422025060157	440.1251845281939	188.67274316941473	-113.43080965547333	422.33414426633215	356.9980711478605
559	2.79	-118.20199448120938	676.7709788128914	329.0748607032264	-350.12318914126627	440.0861382033678	188.76081041628527	-113.47376716421002	422.2649094507434	357.1768469620155
560	2.795	-118.19622948018304	676.7672102318766	329.10984773000405	-350.105444988973	440.0482138900375	188.85169228407855	-113.51869906579404	422.20915452024724	357.359374947845
561	2.8	-118.19025898786815	676.764238133349	329.14520441854256	-350.08895365336093	440.0114216206938	188.94535573457068	-113.56552210507652	422.1671919665173	357.5455195771996
562	2.805	-118.18409431820545	676.7621073068143	329.1809042435284	-350.0736958640662	439.97576780579016	189.04175963734372	-113.61415202428076	422.13929532432513	357.73513813358875
563	2.81	-118.17774837177798	676.7608610125561	329.216919449441	-350.0596496955269	439.94125544165865	189.14085465269739	-113.66450387868238	422.12569795975276	357.92808074653004
564	2.815	-118.17123560271877	676.7605408733949	329.2532210932099	-350.0467907959584	439.90788433123726	189.242583131841	-113.716492353008	422.12659200644964	358.1241904471649
565	2.82	-118.16457198017078	676.7611867683315	329.28977908990504	-350.035092624797	439.8756513162425	189.34687903532517	-113.77003207685141	422.14212745454665	358.3233032452668
566	2.825	-118.15777494443081	676.762836728351	329.32656226140494	-350.0245266974697	439.84455051940654	189.45366787059763	-113.82503793739384	422.1724113960668	358.52524822757044
567	2.83	-118.15086335793067	676.7655268346697	329.36353838797936	-350.0150628363259	439.8145735953929	189.5628666494871	-113.88142538771092	422.21750742987734	358.7298476771578
568	2.835	-118.14385745122819	676.7692911196983	329.40067426270895	-350.0066694265562	439.7857099890039	189.67438386633745	-113.93911074896108	422.27743522842127	358.936917213456
569	2.84	-118.13677876420051	676.7741614710044	329.43793574865737	-349.99931367590875	439.757947199303	189.7881194974264	-113.99801150477145	422.35217026764377	359.1462659522265
570	2.845	-118.1296500826506	676.7801675385459	329.4752878386965	-349.9929618770137	439.7312710482859	189.90396502221495	-114.05804658617228	422.4416437207035	359.3576966847661
571	2.85	-118.1224953705554	676.7873366454553	329.5126947178768	-349.9875796711219	439.7056659527574	190.02180346688243	-114.11913664547899	422.5457425152391	359.57100607539354
572	2.855	-118.1153396982005	676.7956937026415	329.5501198282234	-349.98313231207476	439.6811151980963	190.14150947050854	-114.18120431758027	422.66430955313945	359.7859848761624
573	2.86	-118.108209166462	676.8052611274812	329.5875259358278	-349.97958492932946	439.6576012126244	190.26294937416978	-114.24417446716345	422.79714409096283	360.00241815762854
574	2.865	-118.10113082751046	676.8160587668616	329.6248752000933	-349.97690278887995	439.6351058413314	190.3859813331217	-114.30797442049175	422.94400227836036	360.2200855544022
575	2.87	-118.0941326022255	676.828103824832	329.6621292449839	-349.9750515509364	439.613610617752	190.5104554521427	-114.37253418044469	423.104597851091	360.4387615241344
576	2.875	-118.08724319462078	676.8414107951224	329.6992492321155	-349.9739975232494	439.5930970328385	190.63621394401775	-114.43778662363815	423.27860297447705	360.65821561853056
577	2.88	-118.08049200359035	676.8559913987657	329.73619593551734	-349.97370790899356	439.5735467997226	190.76309131104398	-114.50366767855756	423.46564923243415	360.87821276493764
578	2.885	-118.07390903229718	676.8718545270682	329.7729298178852	-349.97415104816196	439.554942113317	190.89091454934348	-114.57011648376304	423.6653287565385	361.0985135570299
579	2.89	-118.06752479553127	676.889006190154	329.80941110813654	-349.9752966514555	439.53726590376675	191.01950337567206	-114.63707552535857	423.877195488956	361.3188745531098
580	2.895	-118.06137022537327	676.9074494713036	329.84559988007004	-349.9771160256953	439.5205020828189	191.14867047631753	-114.7044907530578	424.1007665724624	361.5390485805533
581	2.9	-118.05547657550282	676.9271844872941	329.88145613192563	-349.9795822898308	439.5046357822465	191.27822177758617	-114.77231167432528	424.33552386023507	361.758785044951
582	2.905	-118.049875324496	676.9482083549416	329.9169398666323	-349.98267058066045	439.48965358352626	191.40795673728255	-114.84049142622221	424.5809155375925	361.9778302425387
583	2.91	-118.04459807845778	676.9705151640272	329.9520111725255	-349.9863582474345	439.4755437380388	191.53766865649672	-114.90898682473906	424.83635784740943	362.19592767456237
584	2.915	-118.03967647333644	676.9940959567804	329.9866303043098	-349.99062503455946	439.4622963771274	191.66714501092196	-114.97775839155233	425.1012369105304	362.41281836228575
585	2.92	-118.03514207726637	677.0189387140769	330.02075776403825	-349.99545325168003	439.4499037114198	191.7961678008387	-115.04677035829766	425.37491063215896	362.6282411614193
586	2.925	-118.0310262932836	677.0450283484939	330.05435438187413	-350.00082793046806	439.4383602188882	191.92451391881434	-115.11599064860489	425.65671068490724	362.8419330748295
587	2.93	-118.02736026275488	677.0723467043489	330.08738139640025	-350.0067369675067	439.4276628211893	192.05195553408583	-115.18539083829069	425.9459445589497	363.0536295624715
588	2.935	-118.02417476985693	677.1008725648287	330.11980053423497	-350.01317125271567	439.4178110478944	192.17826049251187	-115.25494609425192	426.2418976695433	363.26306484757276
589	2.94	-118.02150014743529	677.1305816663075	330.15157408871454	-350.02012478282336	439.4088071882859	192.3031927309054	-115.32463509274228	426.5438355120448	363.46997221818594
590	2.945	-118.01936618456614	677.1614467199187	330.18266499740065	-350.0275947594498	439.4006564304592	192.4265127044829	-115.39443991784978	426.8510058544857	363.67408432331536
591	2.95	-118.01780203613494	677.1934374404401	330.21303691817087	-350.03558167142614	439.39336698753584	192.54797782609918	-115.4643459411172	427.16264095774204	363.8751334629069
592	2.955	-118.01683613473624	677.2265205825246	330.24265430365165	-350.0440893610346	439.3869502108462	192.66734291587147	-115.53434168336642	427.47795981336765	364.07285187107186
593	2.96	-118.0164961051883	677.260659984287	330.2714824737561	-350.05312507391363	439.3814206900043	192.78436065973642	-115.60441865989293	427.7961703892465	364.2669719919915
594	2.965	-118.01680868194398	677.2958166182437	330.29948768608955	-350.0626994924325	439.3767963398469	192.89878207542984	-115.67457121029392	428.1164718733501	364.4572267480185
595	2.97	-118.01779962966644	677.3319486495687	330.32663720399233	-350.0728267523956	439.37309847425945	193.0103569843294	-115.74479631427843	428.4380569060646	364.6433497995529
596	2.975	-118.01949366722401	677.3690115016168	330.35289936199314	-350.08352444299805	439.37035186696096	193.11883448755765	-115.81509339488098	428.7601137917843	364.8250757963262
597	2.98	-118.02191439534471	677.406957928636	330.3782436284501	-350.0948135900085	439.3685847993613	193.22396344470633	-115.88546411056109	429.0818286807304	365.00214061977
598	2.985	-118.02508422815397	677.4457380955699	330.40264066516676	-350.1067186222127	439.36782909564204	193.32549295351345	-115.95591213772079	429.40238771226944	365.17428161618307
599	2.99	-118.02902432880444	677.4852996648264	330.4260623837756	-350.1192673212034	439.36812014525003	193.42317282880094	-116.02644294520715	429.7209791113464	365.34123782043724
600	2.995	-118.03375454938855	677.5255878898629	330.4484819986902	-350.13249075465745	439.36949691302294	193.51675407896548	-116.09706356239148	430.03679523003575	365.50275016998165
601	3.0	-118.03929337530788	677.5665457154201	330.4698740764382	-350.14642319329346	439.37200193719184	193.60598937830895	-116.16778234242848	430.3490345266225	365.65856170891175
602	3.005	-118.04565787425513	677.6081138842045	330.4902145811944	-350.1611020117515	439.37568131552996	193.6906335334943	-116.23860872229743	430.65690347507086	365.8084177818713
603	3.01	-118.05286364994616	677.6502310497991	330.50948091634837	-350.1765675736883	439.3805846799355	193.77044394242154	-116.30955298121586	430.959618398202	365.9520662175474
604	3.015	-118.06092480072202	677.692833895561	330.5276519619492	-350.1928631014283	439.3867651597519	193.84518104383727	-116.38062599899247	431.2564072183966	366.0892575015036
605	3.02	-118.06985388312062	677.7358572592311	330.5447081078841	-350.21003453055437	439.3942793341399	193.9146087560155	-116.45183901585172	431.5465111201424	366.219744938075
606	3.025	-118.07966188050023	677.7792342629685	330.5606312826615	-350.2281303498725	439.40318717382513	193.97849490288456	-116.52320339521881	431.8291861192723	366.3432848010211
607	3.03	-118.09035817677749	677.8228964484898	330.5754049776819	-350.2472014272232	439.41355197254643	194.03661162601657	-116.59473039089961	432.103704534276	366.4596364726037
608	3.035	-118.10195053532408	677.8667739169764	330.58901426689505	-350.26730082165614	439.4254402685366	194.08873578095046	-116.66643092002808	432.36935635560997	366.5685625707166
609	3.04	-118.11444508304767	677.9107954733887	330.6014458217589	-350.2884835825256	439.43892175636176	194.13464931637958	-116.73831534308292	432.62545050948603	366.6698290636628
610	3.045	-118.12784629966426	677.9548887748047	330.61268792142715	-350.31080653610206	439.4540691894454	194.17413963480544	-116.81039325219788	432.87131601316787	366.7632053721288
611	3.05	-118.14215701215107	677.9989804823794	330.6227304581151	-350.3343280603344	439.47095827359607	194.20699993333727	-116.88267326890602	433.10630301935976	366.8484644578724
612	3.055	-118.1573783943514	678.0429964165061	330.6315649376025	-350.3591078484312	439.4896675518499	194.23302952340356	-116.95516285236852	433.3297837478241	366.9253828985975
613	3.06	-118.17350997168518	678.0868617147356	330.6391844748569	-350.38520666196746	439.51027828093186	194.25203412823566	-117.02786811904426	433.5411533029045	366.9937409484569
614	3.065	-118.1905496309028	678.1305009919969	330.6455837847728	-350.41268607425326	439.53287429962904	194.2638261570855	-117.10079367465804	433.73983037617	367.0533225835878
615	3.07	-118.20849363480276	678.1738385026473	330.6507591680421	-350.44160820473496	439.5575418893591	194.26822495524587	-117.17394245922348	433.92525783391943	367.1039155320595
616	3.075	-118.22733664181835	678.2167983038634	330.6547084921899	-350.4720354452294	439.584369627205	194.26505702905843	-117.24731560577365	434.0969031897956	367.1453112875861
617	3.08	-118.24707173036325	678.2593044198716	330.6574311678256	-350.5040301788189	439.6134482316779	194.25415624521253	-117.3209123133465	434.2542589632592	367.17730510634345
618	3.085	-118.26769042781206	678.3012810065078	330.65892812018075	-350.5376544922641	439.64487040145826	194.2353640037636	-117.3947297346674	434.3968429251488	367.1996959862172
619	3.09	-118.28918274397732	678.342652515585	330.6592017560195	-350.5729698828145	439.6787306473548	194.20852938442818	-117.46876287886462	434.52419823201706	367.2122866278103
620	3.095	-118.31153720893207	678.3833438585389	330.6582559260301	-350.61003696032344	439.7151251177133	194.17350926584518	-117.5430045294499	434.6358934513756	367.2148833765447
621	3.1	-118.334740915015	678.4232805688204	330.6560958828192	-350.6489151455928	439.75415141749653	194.1301684176284	-117.61744517769284	434.7315224804006	367.20729614521235
622	3.105	-118.35877956284371	678.462388962493	330.65272823465233	-350.6896623658954	439.79590842125333	194.0783795651696	-117.69207297141824	434.810704361053	367.1893383163572
623	3.11	-118.38363751115088	678.5005962964971	330.6481608950999	-350.73233474863923	439.8404960801857	194.01802342729076	-117.76687367915763	434.8730829949427	367.16082662391227
